<?xml version="1.0" encoding="UTF-8"?>
<svg id="Livello_2" data-name="Livello 2" xmlns="http://www.w3.org/2000/svg" viewBox="0 0 223.84 222.5">
  <defs>
    <style>
      .cls-1 {
        font-size: 30.68px;
      }

      .cls-1, .cls-2, .cls-3 {
        fill: #fff;
      }

      .cls-1, .cls-2, .cls-3, .cls-4, .cls-5 {
        font-family: OCRAExtended, 'OCR A Extended';
      }

      .cls-2 {
        font-size: 30.33px;
      }

      .cls-3 {
        font-size: 29.48px;
      }

      .cls-6 {
        fill: #086638;
      }

      .cls-7 {
        fill: #d7db2f;
      }

      .cls-4 {
        font-size: 78.75px;
      }

      .cls-4, .cls-5 {
        fill: #1d1d1b;
      }

      .cls-5 {
        font-size: 56.37px;
      }
    </style>
  </defs>
  <g id="Livello_1-2" data-name="Livello 1">
    <path class="cls-7" d="m105.27,133.26c1.66-.97,1.02-3.95,3.57-3.67,2.64.29,2.51,2.68,3.08,4.52,6.68,21.53,13.36,43.06,20.02,64.6.57,1.84.91,3.06-1.84,3.82-6.82,1.88-13.66,2.89-20.7,2.99-9.56.14-19.04-.27-28.39-2.56-3.76-.92-3.92-1.49-2.37-5.11,4.07-9.49,7.98-19.06,11.99-28.58,3.39-8.06,6.82-16.11,10.24-24.16,1.17-2.75,2.35-5.49,3.25-8.38-1.94,2.02-2.86,4.63-4.04,7.08-8.63,17.95-17.26,35.9-25.76,53.92-1.1,2.33-2.41,2.66-4.38,1.82-7.43-3.16-13.63-8.15-18.87-14.42-4.48-5.35-7.69-11.54-10.6-17.94-.74-1.62-.49-2.31.89-3.11,8.07-4.71,16.11-9.47,24.16-14.22,9.58-5.66,19.16-11.32,28.75-16.97,1.78-1.05,3.65-1.91,5.39-3.06,1.7-1.12,4.26.58,5.62,3.42Zm2.06,33.39c-2.34,5.56-4.63,10.3-6.22,15.42-1.04,3.34.09,5.69,2.07,7.63,1.42,1.4,3.18,3,5.71,1.61,2.9-1.6,4.84-3.65,4.71-7.27-.22-6.24-3.25-11.35-6.27-17.39Zm-42.25,7.94c1.29.03,2.61.25,3.29-1.04,2.18-4.13,3.6-8.52,3.98-13.25.13-1.6-.71-2.19-1.94-1.59-3.69,1.8-7.6,3.29-9.79,7.35-1.02,1.89-1.01,3.71-.02,5.46,1,1.76,2.18,3.49,4.47,3.07Z"/>
    <path class="cls-7" d="m219.38,128.58c-1.05,2.83-2.09,5.66-3.14,8.5-5.7,15.48-11.55,30.91-20.21,44.91-10.99,17.75-26.56,28.6-46.26,33.38-9.35,2.27-18.79,3.94-28.27,5.34-5.46.81-11.02,1.83-16.47,1.79-13.77-.11-27.57-.35-40.8-5.5-10.54-4.1-18.73-11.07-25.2-20.53-9.37-13.7-16.54-28.58-22.28-44.29-4.5-12.3-7.74-24.95-10.34-37.8-.52-2.56.18-3.32,2.62-2.76,1.63.37,3.29.1,4.96.39,1.92.34,2.52,1.46,2.89,3.12,3.08,13.58,6.33,27.13,11.33,40.08,5.53,14.31,11.74,28.36,21.21,40.38,7.15,9.07,17.12,13.48,27.63,16.66,11.08,3.35,22.48,3,33.76,2.32,9.76-.58,19.4-2.64,28.89-5.33,10.04-2.85,19.91-6.1,29.31-10.85,16.73-8.47,28.31-21.62,35.01-39.9,3.6-9.82,6.94-19.67,9.18-29.91.7-3.19,2.82-1.7,4.39-2.01,1.39-.27,1.63.75,1.77,2.01Z"/>
    <path class="cls-7" d="m122.01,127.8c1.88-.16,2.77.51,3.65,1.12,18.53,13,37.06,26.02,55.59,39.03,1.85,1.3,3.7,2.6,5.54,3.91,1.23.88,1.39,1.61.17,2.88-5.3,5.54-11.42,9.81-18,13.46-7.45,4.13-15.18,7.59-23.16,10.41-6.3,2.22-6.46,2.24-8.83-4.06-5.78-15.39-11.42-30.85-17.12-46.27-1.87-5.08-3.7-10.17-5.67-15.21-.67-1.73-.62-2.67,1.38-2.91,2.53-.3,4.72-1.78,6.45-2.36Zm36.99,48.13c-.01-4.26-3.9-8.77-7.79-9.3-1.03-.14-1.64.09-1.65,1.41-.04,3.38.21,6.72,1.87,9.69.91,1.63,1.98,3.69,4.27,2.87,2.07-.74,3.97-2,3.31-4.67Z"/>
    <path class="cls-7" d="m27.41,112.44c9,.78,17.99,1.81,27.01,2.25,6.23.3,12.43,1.03,18.65,1.38,8.06.45,16.1,1.23,24.16,1.8,1.87.13,1.6,1.85,2.11,2.9.52,1.06-.08,1.86-1.12,2.43-7.74,4.32-15.47,8.69-23.19,13.06-8.22,4.65-16.42,9.32-24.64,13.98-3.6,2.04-7.26,3.99-10.79,6.16-1.67,1.03-2.55.22-3.04-1.13-4.15-11.38-8.26-22.77-10.71-34.73-.32-1.57-.73-3.13-1.1-4.69-.66-2.77.02-3.67,2.65-3.4Zm13.6,20.24c3.35.32,5.12-2.13,6.87-4.45,1.1-1.46,1.19-2.55-1.11-3.12-1.57-.39-3.17-.84-4.74-1.05-3.04-.39-5.65,1.76-5.66,4.31,0,2.48,1.94,4.28,4.64,4.3Z"/>
    <path class="cls-7" d="m206.89,130.7c-.43,7.68-2.99,14.76-5.74,21.8-1.48,3.79-3.27,7.39-5.17,10.96-1.05,1.97-2.16,2.31-4.03,1.21-9.62-5.67-19.28-11.26-28.94-16.87-9.97-5.79-19.94-11.57-29.91-17.36-2.63-1.53-5.23-3.13-7.91-4.55-1.14-.61-1.09-1-.43-2.04,2.25-3.54,3.46-4.16,7.55-3.43,4.32.77,8.7.81,13.06,1.17,6.77.57,13.54,1.25,20.32,1.76,3.5.26,7.01.48,10.5.58,9.55.29,18.99,2.02,28.55,2.01,3.37,0,1.5,3.07,2.14,4.76Zm-25.53,5c-.89.08-2.17.08-3.39.34-.46.1-1.69.31-1.02,1.35,2.93,4.54,4.61,9.85,8.02,14.08.65.8,1.53,1.38,2.47,1.42,2.9.12,6.1-1.86,6.74-4.33,1.01-3.91.64-7.41-2.08-9.62-3.08-2.5-6.63-3.1-10.73-3.23Z"/>
    <path class="cls-6" d="m102.44,101.36c-.13.56.27,1.32-.4,1.65-.71.35-1.21-.23-1.81-.6-11.26-6.95-22.46-14.01-34.31-19.85-1.62-.8-3.21-1.8-4.92-2.26-5.81-1.58-7.02-6.54-8.14-11.64-.52-2.38-.65-4.79-.61-7.23.02-1.43.37-1.68,1.74-1.29,5.31,1.49,10.03,4.24,14.63,7.25,8.35,5.47,16.5,11.26,24.53,17.22,5.98,4.44,9.1,9.95,9.29,16.75Z"/>
    <path class="cls-6" d="m78.81,11.7c5.64,2.25,10.17,5.57,13.84,10.03,1.94,2.36,2.11,5.6,2.57,8.5,1.15,7.16,2.07,14.41,1.96,21.68-.07,4.53-.81,9.04-1.25,13.56-.05.51-.04,1.03-.67,1.19-.72.18-.99-.23-1.28-.86-3.85-8.23-7.76-16.43-11.59-24.66-1.55-3.33-1.02-7.07-1.68-10.6-.92-4.91-1.33-9.93-1.89-14.91-.13-1.19-.02-2.41-.02-3.93Z"/>
    <path class="cls-6" d="m52.29,37.44c0-1.13-.02-2.26,0-3.39.09-3.83,1.09-4.62,4.63-3.49,2.94.94,5.72,2.26,8.31,4.02,3.94,2.68,7.98,5.2,11.91,7.89,2.87,1.97,5.13,4.54,6.61,7.85,2.44,5.47,5.02,10.86,7.46,16.33.21.47,1.26,1.16.23,1.77-.61.36-1.23-.05-1.82-.55-6.56-5.54-13.52-10.46-20.75-15.01-4.03-2.54-8.22-4.75-12.62-6.4-3.01-1.13-4.86-2.59-4.14-6.25.18-.89.03-1.84.03-2.77.05,0,.1,0,.15,0Z"/>
    <path class="cls-6" d="m140.47,55c1.17,6.5-.38,12.64-1.58,18.73-1.43,7.22-3.19,14.37-5.12,21.49-1.3,4.77-5.18,6.24-8.35,8.66-1.02.78-1.33-.7-1.15-1.55,1.81-8.61,2.74-17.37,4.02-26.07.54-3.69.55-7.49.6-11.24.02-1.65.34-2.94,1.61-3.98,3.05-2.51,6.06-5.07,9.99-6.03Z"/>
    <path class="cls-6" d="m106.74,104.74c-1.43-6.54-4.93-12.48-3.2-19.89,2.29-9.8,4.13-19.73,4.86-29.86.27-3.79.39-7.65,1.07-11.42.1-.54-.25-1.37.6-1.45.68-.07.9.62,1.16,1.17,2.32,5.02,3.71,10.33,4.14,15.86.67,8.46-1.51,16.56-3.17,24.71-1.27,6.23-2.58,12.45-3.9,18.67-.16.77-.49,1.51-.74,2.27l-.82-.07Z"/>
    <path class="cls-6" d="m98.1,84.54c-3.45-.81-5.6-3.41-8.08-5.29-9.46-7.14-19.29-13.61-29.57-19.35-2.51-1.4-4.93-2.99-7.49-4.29-1.46-.74-1.83-1.72-1.92-3.32-.16-2.74.62-3.06,3.17-2.57,9.37,1.81,17.01,7.01,24.45,12.76,4.48,3.46,8.86,7.1,13.55,10.24,2.8,1.87,3.04,4.92,4.32,7.5.64,1.28,1,2.72,1.57,4.31Z"/>
    <path class="cls-6" d="m147.37,88.6c8.68-12.26,19.35-21.65,33.42-26.69-.94,5.71-.79,11.89-6.04,15.59-3.32,2.34-6.97,4.2-10.54,6.13-4.33,2.34-8.99,3.8-13.7,5.07-1.02.27-2.06.43-3.14-.09Z"/>
    <path class="cls-6" d="m57.56,82.68c11.1,2.84,20.3,8.9,29.59,14.7,4.6,2.87,9.37,5.44,13.8,8.63.89.64,1.72,1.33,2.42,2.13.42.48,1.64.73.92,1.78-.53.77-1.22.53-2.05.21-4.68-1.82-9.33-3.77-14.13-5.17-6.77-1.97-13.39-4.1-19.11-8.59-4.63-3.64-9.34-7.18-11.45-13.69Z"/>
    <path class="cls-6" d="m144.84,86.23c2.03-6.99,3.74-14.08,4.97-21.29.68-4.02,1.24-8.04.89-12.11-.17-1.96.74-2.82,2.23-3.33,1.44-.5,2.98-.72,4.34-1.38,1.34-.64,3.41-1.06,3.76-.25.62,1.43,1.61,2.91,1.14,4.95-1.26,5.43-2.12,10.97-3.18,16.45-.37,1.9-1.32,3.53-2.33,5.15-2.66,4.23-6.82,7.01-9.65,11.09-.29.42-1.06,1.24-2.18.73Z"/>
    <path class="cls-6" d="m99.73,45.19c-.49-4.93-1.01-9.86-1.42-14.81-.07-.81-.54-1.96.46-2.47,1.02-.52,1.49.61,2.16,1.15,3.92,3.16,3.89,7.94,4.4,12.35,1.48,12.93-.64,25.55-3.44,38.08-.23,1.04.41,2.32-.73,2.99-4.54-5.62-4.48-11.97-2.76-18.67.7-2.7.88-5.55,1.3-8.31.44-3.43.37-6.87.03-10.32Z"/>
    <path class="cls-6" d="m124.24,108.19c4.16-3.4,7.46-7.68,12.65-8.1,9.58-.77,18.69-3.61,27.91-6,.97-.25,1.88-.28,3.13-.13-2.85,4.11-6.77,6.44-10.8,8.44-6.06,3-12.72,3.42-19.25,4.36-3.33.48-6.66.95-9.96,1.6-1.06.21-2.02.42-3.68-.17Z"/>
    <path class="cls-6" d="m135.9,95.63c2.01-8.97,4.25-17.88,5.63-26.98.73-4.83,1.6-9.64,2.07-14.5.22-2.19,1.71-1.82,2.8-2.2,1.76-.62,1.6,1.18,1.71,2.02.79,5.79.13,11.48-1.18,17.15-1.24,5.34-3.18,10.49-3.94,15.95-.6,4.35-4.37,5.91-7.1,8.56Z"/>
    <path class="cls-6" d="m119.5,99.17c.37-4.61-.93-9.74-.62-14.97.35-6.02,2.26-11.5,5-16.7.44-.84,1.21-2.09,2.11-1.89,1.27.28.56,1.72.58,2.63.28,9.86-1.57,19.45-3.41,29.04-.51,2.65-.75,5.36-1.29,8-.18.87-.45,2.29-1.73,2.04-1.22-.24-.57-1.52-.61-2.31-.1-1.74-.03-3.49-.03-5.84Z"/>
    <path class="cls-6" d="m77.61,38.9c-2.24.28-3.42-1.2-4.64-2.14-5-3.85-10.27-7.26-15.79-10.17-3.14-1.66-5.16-3.54-4.34-7.52.18-.87.03-1.81.03-3.56,9.9,6.43,20.39,11.1,24.74,23.4Z"/>
    <path class="cls-6" d="m138.27,97.54c2.18-3.17,4.39-5.75,7.78-6.07,9.27-.88,17.28-5.36,25.52-9.24.18-.08.4-.08.55-.2.86-.64,2.01-1.01,2.65-.22.71.87-.22,1.96-.75,2.71-2.51,3.6-6.37,5.11-10.08,6.77-7.32,3.28-15.05,5.02-22.89,6.23-.75.12-1.52.02-2.79.02Z"/>
    <path class="cls-6" d="m78.19,32.73c-5.74-6.46-8.91-13.82-9.39-22.4,0-.1-.02-.21,0-.31.1-1.24-1.66-3.33.08-3.5,1.71-.18,4.32.14,5.05,3.02,1.1,4.35,2.46,8.63,3.14,13.09.5,3.26,1.46,6.47,1.12,10.1Z"/>
    <path class="cls-6" d="m162.53,67.36c-1.65-.1-1.24-1.24-1.09-1.83.96-3.85,2.04-7.66,2.47-11.63.21-1.97.71-3.9.97-5.87.26-2,3.39-4.51,5.24-4.17.91.17.8.9.66,1.37-1.89,6.1-1.54,12.92-5.33,18.41-.93,1.35-2.02,2.59-2.92,3.74Z"/>
    <path class="cls-6" d="m63.76,19.38c-3.2-2.2-6.61-4.15-9.53-6.71-1.73-1.52-1.98-4.21-1.95-6.66.02-1.69,0-3.38,0-6.01,5.07,6.36,9.13,12.2,11.48,19.38Z"/>
    <path class="cls-6" d="m166.21,67.01c2.71-7.35,8.36-10.87,14.11-14.3.44-.26.89-.45,1.13.29.38,1.13,1.09,2.3.03,3.37-1.17,1.19-2.36,2.39-3.7,3.34-3.64,2.59-7.15,5.45-11.58,7.3Z"/>
    <path class="cls-6" d="m56.99.83c2.89-.35,4.81,1.25,6.44,3.24,2.31,2.83,3.42,6.28,4.17,9.85.1.48.38,1.29-.45,1.54-.58.17-.88-.38-1.17-.76-3.28-4.33-6.51-8.7-8.99-13.87Z"/>
    <path class="cls-6" d="m180.78,39.75c-2.07,4.2-4.56,8.01-7.7,11.34-.38.41-.8,1.18-1.43.68-.45-.36-.24-1.04-.05-1.67.41-1.31.66-2.68.96-4.03.86-3.98,3.97-6.41,8.23-6.32Z"/>
    <path class="cls-6" d="m174.33,54.52c2.46-4.36,4.34-8.64,7.94-11.73.78,4.94-1.82,8.88-7.94,11.73Z"/>
    <path class="cls-7" d="m99.73,45.19c.33,3.44.41,6.89-.03,10.32.01-3.45.02-6.88.03-10.32Z"/>
    <path class="cls-7" d="m107.33,166.65c3.02,6.03,6.05,11.15,6.27,17.39.13,3.62-1.81,5.68-4.71,7.27-2.53,1.4-4.29-.21-5.71-1.61-1.98-1.94-3.11-4.29-2.07-7.63,1.59-5.13,3.88-9.86,6.22-15.42Z"/>
    <path class="cls-7" d="m65.08,174.59c-2.29.42-3.46-1.31-4.47-3.07-1-1.75-1-3.57.02-5.46,2.19-4.06,6.1-5.55,9.79-7.35,1.23-.6,2.06-.01,1.94,1.59-.38,4.73-1.8,9.13-3.98,13.25-.68,1.29-2.01,1.06-3.29,1.04Z"/>
    <path class="cls-7" d="m159.01,175.92c.67,2.66-1.23,3.93-3.31,4.67-2.29.82-3.36-1.24-4.27-2.87-1.66-2.97-1.91-6.31-1.87-9.69.02-1.32.62-1.55,1.65-1.41,3.89.53,7.77,5.04,7.79,9.3Z"/>
    <path class="cls-7" d="m41.02,132.67c-2.7-.02-4.65-1.83-4.64-4.3,0-2.54,2.61-4.7,5.66-4.31,1.57.2,3.17.66,4.74,1.05,2.3.57,2.22,1.65,1.11,3.12-1.75,2.32-3.51,4.77-6.87,4.45Z"/>
    <path class="cls-7" d="m181.36,135.7c4.1.13,7.65.73,10.73,3.23,2.72,2.21,3.1,5.72,2.08,9.62-.64,2.47-3.84,4.45-6.74,4.33-.94-.04-1.82-.61-2.47-1.42-3.41-4.23-5.08-9.55-8.02-14.08-.67-1.03.56-1.25,1.02-1.35,1.22-.27,2.5-.27,3.39-.34Z"/>
    <text class="cls-3" transform="translate(58.07 139.31) rotate(-105)"><tspan x="0" y="0">S</tspan></text>
    <text class="cls-2" transform="translate(56.94 174.67) rotate(40)"><tspan x="0" y="0">L</tspan></text>
    <text class="cls-1" transform="translate(96.73 195.55)"><tspan x="0" y="0">I</tspan></text>
    <text class="cls-1" transform="translate(153.58 191.8) rotate(-35)"><tspan x="0" y="0">C</tspan></text>
    <text class="cls-1" transform="translate(192.79 154.08) rotate(-60)"><tspan x="0" y="0">E</tspan></text>
    <text class="cls-4" transform="translate(16.8 104.83) rotate(-15)"><tspan x="0" y="0">I</tspan></text>
    <text class="cls-5" transform="translate(167.87 96.54) rotate(40)"><tspan x="0" y="0">T</tspan></text>
  </g>
</svg>